<svg xmlns="http://www.w3.org/2000/svg" width="1350" height="950" viewBox="0 0 1350 950">
  <defs>
    <style>
      .bg{fill:#f7f8fb}.board{fill:#2f8f56;stroke:#1f6b3e;stroke-width:4}.port{fill:#d6dbe3;stroke:#8b95a1;stroke-width:3}
      .header{fill:#171b22;stroke:#0b0f14;stroke-width:3}.pin{fill:#2a2f38;stroke:#0b0f14;stroke-width:2}
      .use{fill:#ffb020;stroke:#9a5b00;stroke-width:3}.v33{fill:#ef4444;stroke:#991b1b;stroke-width:3}.gnd{fill:#111827;stroke:#000;stroke-width:3}
      .tb{fill:#fff;stroke:#9ca3af;stroke-width:4}.tbpin{fill:#eef2ff;stroke:#6366f1;stroke-width:2}.box{fill:#fff7ed;stroke:#f97316;stroke-width:3}
      .warn{fill:#fee2e2;stroke:#ef4444;stroke-width:3}.motor{fill:#e0f2fe;stroke:#0284c7;stroke-width:3}
      .title{font-family:Arial,"Noto Sans TC",sans-serif;font-size:34px;font-weight:700;fill:#111827}.h2{font-family:Arial,"Noto Sans TC",sans-serif;font-size:24px;font-weight:700;fill:#111827}
      .label{font-family:Arial,"Noto Sans TC",sans-serif;font-size:20px;fill:#111827}.small{font-family:Arial,"Noto Sans TC",sans-serif;font-size:16px;fill:#111827}
      .tiny{font-family:Arial,"Noto Sans TC",sans-serif;font-size:12px;fill:#111827}.num{font-family:Arial,"Noto Sans TC",sans-serif;font-size:13px;font-weight:700;fill:#fff;text-anchor:middle;dominant-baseline:central}
      .wire{fill:none;stroke-width:5;stroke-linecap:round;stroke-linejoin:round}.red{stroke:#ef4444}.black{stroke:#111827}.blue{stroke:#2563eb}.orange{stroke:#f97316}.green{stroke:#16a34a}.purple{stroke:#7c3aed}.pink{stroke:#db2777}.teal{stroke:#0d9488}.gray{stroke:#64748b}
    </style>
    <marker id="ar" markerWidth="12" markerHeight="12" refX="10" refY="6" orient="auto" markerUnits="strokeWidth"><path d="M2,2 L10,6 L2,10 Z" fill="#ef4444"/></marker>
    <marker id="ab" markerWidth="12" markerHeight="12" refX="10" refY="6" orient="auto" markerUnits="strokeWidth"><path d="M2,2 L10,6 L2,10 Z" fill="#111827"/></marker>
    <marker id="ablue" markerWidth="12" markerHeight="12" refX="10" refY="6" orient="auto" markerUnits="strokeWidth"><path d="M2,2 L10,6 L2,10 Z" fill="#2563eb"/></marker>
    <marker id="ao" markerWidth="12" markerHeight="12" refX="10" refY="6" orient="auto" markerUnits="strokeWidth"><path d="M2,2 L10,6 L2,10 Z" fill="#f97316"/></marker>
    <marker id="ag" markerWidth="12" markerHeight="12" refX="10" refY="6" orient="auto" markerUnits="strokeWidth"><path d="M2,2 L10,6 L2,10 Z" fill="#16a34a"/></marker>
    <marker id="ap" markerWidth="12" markerHeight="12" refX="10" refY="6" orient="auto" markerUnits="strokeWidth"><path d="M2,2 L10,6 L2,10 Z" fill="#7c3aed"/></marker>
    <marker id="apk" markerWidth="12" markerHeight="12" refX="10" refY="6" orient="auto" markerUnits="strokeWidth"><path d="M2,2 L10,6 L2,10 Z" fill="#db2777"/></marker>
    <marker id="at" markerWidth="12" markerHeight="12" refX="10" refY="6" orient="auto" markerUnits="strokeWidth"><path d="M2,2 L10,6 L2,10 Z" fill="#0d9488"/></marker>
    <marker id="agy" markerWidth="12" markerHeight="12" refX="10" refY="6" orient="auto" markerUnits="strokeWidth"><path d="M2,2 L10,6 L2,10 Z" fill="#64748b"/></marker>
  </defs>

  <rect class="bg" width="1350" height="950"/>
  <text class="title" x="48" y="58">Raspberry Pi + TB6612：兩顆馬達一次測試</text>
  <text class="label" x="48" y="94">方向：GPIO 排針在上方，USB / 網路孔在右邊。照「實體腳位 Pin」數，比照 GPIO 名稱不容易混亂。</text>

  <rect class="board" x="55" y="145" width="745" height="420" rx="26"/>
  <text class="h2" x="92" y="193" fill="#fff">Raspberry Pi 正面</text>
  <text class="small" x="92" y="222" fill="#e7f7ed">右邊看到 USB / 網路孔，就是這個方向</text>
  <rect class="port" x="718" y="245" width="102" height="64" rx="8"/><rect class="port" x="718" y="326" width="102" height="64" rx="8"/><rect class="port" x="718" y="426" width="102" height="86" rx="8"/>
  <text class="small" x="834" y="283">USB</text><text class="small" x="834" y="364">USB</text><text class="small" x="834" y="479">網路孔</text>

  <text class="small" x="114" y="268" fill="#fff">上排：偶數腳 2,4,6...</text>
  <text class="small" x="114" y="358" fill="#fff">下排：奇數腳 1,3,5...</text>
  <rect class="header" x="108" y="282" width="560" height="68" rx="10"/>

  <g>
    <circle class="pin" cx="123" cy="305" r="11"/><text class="num" x="123" y="305">2</text>
    <circle class="pin" cx="150" cy="305" r="11"/><text class="num" x="150" y="305">4</text>
    <circle class="gnd" cx="177" cy="305" r="11"/><text class="num" x="177" y="305">6</text>
    <circle class="pin" cx="204" cy="305" r="11"/><text class="num" x="204" y="305">8</text>
    <circle class="pin" cx="231" cy="305" r="11"/><text class="num" x="231" y="305">10</text>
    <circle class="use" cx="258" cy="305" r="12"/><text class="num" x="258" y="305">12</text>
    <circle class="gnd" cx="285" cy="305" r="11"/><text class="num" x="285" y="305">14</text>
    <circle class="use" cx="312" cy="305" r="12"/><text class="num" x="312" y="305">16</text>
    <circle class="use" cx="339" cy="305" r="12"/><text class="num" x="339" y="305">18</text>
    <circle class="gnd" cx="366" cy="305" r="11"/><text class="num" x="366" y="305">20</text>
    <circle class="pin" cx="393" cy="305" r="11"/><text class="num" x="393" y="305">22</text>
    <circle class="pin" cx="420" cy="305" r="11"/><text class="num" x="420" y="305">24</text>
    <circle class="pin" cx="447" cy="305" r="11"/><text class="num" x="447" y="305">26</text>
    <circle class="pin" cx="474" cy="305" r="11"/><text class="num" x="474" y="305">28</text>
    <circle class="gnd" cx="501" cy="305" r="11"/><text class="num" x="501" y="305">30</text>
    <circle class="pin" cx="528" cy="305" r="11"/><text class="num" x="528" y="305">32</text>
    <circle class="gnd" cx="555" cy="305" r="11"/><text class="num" x="555" y="305">34</text>
    <circle class="pin" cx="582" cy="305" r="11"/><text class="num" x="582" y="305">36</text>
    <circle class="pin" cx="609" cy="305" r="11"/><text class="num" x="609" y="305">38</text>
    <circle class="pin" cx="636" cy="305" r="11"/><text class="num" x="636" y="305">40</text>

    <circle class="v33" cx="123" cy="328" r="12"/><text class="num" x="123" y="328">1</text>
    <circle class="pin" cx="150" cy="328" r="11"/><text class="num" x="150" y="328">3</text>
    <circle class="pin" cx="177" cy="328" r="11"/><text class="num" x="177" y="328">5</text>
    <circle class="pin" cx="204" cy="328" r="11"/><text class="num" x="204" y="328">7</text>
    <circle class="gnd" cx="231" cy="328" r="11"/><text class="num" x="231" y="328">9</text>
    <circle class="use" cx="258" cy="328" r="12"/><text class="num" x="258" y="328">11</text>
    <circle class="use" cx="285" cy="328" r="12"/><text class="num" x="285" y="328">13</text>
    <circle class="use" cx="312" cy="328" r="12"/><text class="num" x="312" y="328">15</text>
    <circle class="v33" cx="339" cy="328" r="11"/><text class="num" x="339" y="328">17</text>
    <circle class="pin" cx="366" cy="328" r="11"/><text class="num" x="366" y="328">19</text>
    <circle class="pin" cx="393" cy="328" r="11"/><text class="num" x="393" y="328">21</text>
    <circle class="pin" cx="420" cy="328" r="11"/><text class="num" x="420" y="328">23</text>
    <circle class="gnd" cx="447" cy="328" r="11"/><text class="num" x="447" y="328">25</text>
    <circle class="pin" cx="474" cy="328" r="11"/><text class="num" x="474" y="328">27</text>
    <circle class="pin" cx="501" cy="328" r="11"/><text class="num" x="501" y="328">29</text>
    <circle class="pin" cx="528" cy="328" r="11"/><text class="num" x="528" y="328">31</text>
    <circle class="use" cx="555" cy="328" r="12"/><text class="num" x="555" y="328">33</text>
    <circle class="pin" cx="582" cy="328" r="11"/><text class="num" x="582" y="328">35</text>
    <circle class="pin" cx="609" cy="328" r="11"/><text class="num" x="609" y="328">37</text>
    <circle class="gnd" cx="636" cy="328" r="11"/><text class="num" x="636" y="328">39</text>
  </g>

  <rect x="88" y="410" width="660" height="118" rx="12" fill="#e7f7ed" stroke="#b7e0c6" stroke-width="2"/>
  <text class="small" x="112" y="442">A 馬達控制：Pin 11 GPIO17 → AIN1、Pin 13 GPIO27 → AIN2、Pin 12 GPIO18 → PWMA</text>
  <text class="small" x="112" y="474">B 馬達控制：Pin 16 GPIO23 → BIN1、Pin 18 GPIO24 → BIN2、Pin 33 GPIO13 → PWMB</text>
  <text class="small" x="112" y="506">共用：Pin 15 GPIO22 → STBY、Pin 1 3.3V → VCC、Pin 6 GND → GND</text>

  <rect class="tb" x="910" y="140" width="332" height="570" rx="16"/>
  <text class="h2" x="1024" y="188">TB6612</text>
  <text class="small" x="1008" y="216">馬達驅動板</text>

  <rect class="tbpin" x="935" y="250" width="105" height="32" rx="6"/><text class="small" x="960" y="272">VCC</text>
  <rect class="tbpin" x="935" y="290" width="105" height="32" rx="6"/><text class="small" x="960" y="312">GND</text>
  <rect class="tbpin" x="935" y="330" width="105" height="32" rx="6"/><text class="small" x="958" y="352">AIN1</text>
  <rect class="tbpin" x="935" y="370" width="105" height="32" rx="6"/><text class="small" x="958" y="392">AIN2</text>
  <rect class="tbpin" x="935" y="410" width="105" height="32" rx="6"/><text class="small" x="956" y="432">PWMA</text>
  <rect class="tbpin" x="935" y="450" width="105" height="32" rx="6"/><text class="small" x="958" y="472">STBY</text>
  <rect class="tbpin" x="935" y="490" width="105" height="32" rx="6"/><text class="small" x="958" y="512">BIN1</text>
  <rect class="tbpin" x="935" y="530" width="105" height="32" rx="6"/><text class="small" x="958" y="552">BIN2</text>
  <rect class="tbpin" x="935" y="570" width="105" height="32" rx="6"/><text class="small" x="956" y="592">PWMB</text>

  <rect class="tbpin" x="1100" y="250" width="105" height="32" rx="6"/><text class="small" x="1134" y="272">VM</text>
  <rect class="tbpin" x="1100" y="290" width="105" height="32" rx="6"/><text class="small" x="1130" y="312">GND</text>
  <rect class="tbpin" x="1100" y="370" width="105" height="32" rx="6"/><text class="small" x="1130" y="392">AO1</text>
  <rect class="tbpin" x="1100" y="410" width="105" height="32" rx="6"/><text class="small" x="1130" y="432">AO2</text>
  <rect class="tbpin" x="1100" y="520" width="105" height="32" rx="6"/><text class="small" x="1130" y="542">BO1</text>
  <rect class="tbpin" x="1100" y="560" width="105" height="32" rx="6"/><text class="small" x="1130" y="582">BO2</text>

  <path class="wire red" d="M123 328 C330 620, 800 230, 935 266" marker-end="url(#ar)"/>
  <path class="wire black" d="M177 305 C345 220, 790 285, 935 306" marker-end="url(#ab)"/>
  <path class="wire blue" d="M258 328 C485 350, 765 340, 935 346" marker-end="url(#ablue)"/>
  <path class="wire orange" d="M285 328 C500 386, 780 380, 935 386" marker-end="url(#ao)"/>
  <path class="wire green" d="M258 305 C510 430, 780 420, 935 426" marker-end="url(#ag)"/>
  <path class="wire purple" d="M312 328 C530 475, 790 460, 935 466" marker-end="url(#ap)"/>
  <path class="wire pink" d="M312 305 C535 515, 790 500, 935 506" marker-end="url(#apk)"/>
  <path class="wire teal" d="M339 305 C550 555, 790 540, 935 546" marker-end="url(#at)"/>
  <path class="wire gray" d="M555 328 C680 625, 825 580, 935 586" marker-end="url(#agy)"/>

  <text class="small" x="610" y="642" fill="#ef4444">Pin 1: 3.3V</text>
  <text class="small" x="610" y="225" fill="#111827">Pin 6: GND</text>
  <text class="small" x="610" y="360" fill="#2563eb">Pin 11: GPIO17</text>
  <text class="small" x="610" y="395" fill="#f97316">Pin 13: GPIO27</text>
  <text class="small" x="610" y="430" fill="#16a34a">Pin 12: GPIO18</text>
  <text class="small" x="610" y="475" fill="#7c3aed">Pin 15: GPIO22</text>
  <text class="small" x="610" y="520" fill="#db2777">Pin 16: GPIO23</text>
  <text class="small" x="610" y="555" fill="#0d9488">Pin 18: GPIO24</text>
  <text class="small" x="675" y="615" fill="#64748b">Pin 33: GPIO13</text>

  <rect class="motor" x="1015" y="735" width="142" height="68" rx="34"/><text class="h2" x="1048" y="777">馬達 A</text>
  <rect class="motor" x="1175" y="735" width="142" height="68" rx="34"/><text class="h2" x="1208" y="777">馬達 B</text>
  <path class="wire blue" d="M1100 386 C1050 530, 1030 650, 1070 735" marker-end="url(#ablue)"/>
  <path class="wire orange" d="M1100 426 C1090 548, 1110 650, 1102 735" marker-end="url(#ao)"/>
  <path class="wire pink" d="M1100 536 C1160 610, 1185 670, 1228 735" marker-end="url(#apk)"/>
  <path class="wire teal" d="M1100 576 C1210 610, 1245 675, 1260 735" marker-end="url(#at)"/>

  <rect class="box" x="70" y="665" width="620" height="160" rx="14"/>
  <text class="h2" x="98" y="708">電池盒</text>
  <text class="small" x="98" y="742">紅線 + → TB6612 VM</text>
  <text class="small" x="98" y="772">黑線 - → TB6612 GND</text>
  <text class="small" x="98" y="802">黑線也要和 Raspberry Pi 的 GND 共地</text>
  <path class="wire red" d="M692 742 C820 725, 1045 270, 1100 266" marker-end="url(#ar)"/>
  <path class="wire black" d="M692 772 C830 760, 1045 310, 1100 306" marker-end="url(#ab)"/>

  <rect class="warn" x="720" y="825" width="545" height="78" rx="14"/>
  <text class="small" x="748" y="858" fill="#991b1b">電池紅線不要接 Pi 的 3.3V / 5V；馬達不要直接接 Pi GPIO。</text>
  <text class="small" x="748" y="884" fill="#991b1b">如果某顆馬達方向相反，對調 AO1/AO2 或 BO1/BO2 的兩條線。</text>
</svg>
